<svg version="1.2" xmlns="http://www.w3.org/2000/svg" viewBox="0 0 403 500" width="403" height="500">
	<title>Proyecto nuevo</title>
	<defs>
		<linearGradient id="g1" x2="1" gradientUnits="userSpaceOnUse" gradientTransform="matrix(100.09,129.463,-33.526,25.919,264.257,-187.761)">
			<stop offset="0" stop-color="#007c6b" stop-opacity="1"/>
			<stop offset="1" stop-color="#007c6b" stop-opacity="0"/>
		</linearGradient>
		<linearGradient id="g2" x2="1" gradientUnits="userSpaceOnUse" gradientTransform="matrix(39.707,139.014,-17.466,4.989,794.982,-135.112)">
			<stop offset="0" stop-color="#007c6b" stop-opacity="1"/>
			<stop offset="1" stop-color="#007c6b" stop-opacity="0"/>
		</linearGradient>
		<linearGradient id="g3" x2="1" gradientUnits="userSpaceOnUse" gradientTransform="matrix(17.172,154.714,-11.082,1.23,1265.43,-32.257)">
			<stop offset="0" stop-color="#007c6b" stop-opacity="1"/>
			<stop offset="1" stop-color="#007c6b" stop-opacity="0"/>
		</linearGradient>
		<linearGradient id="g4" x2="1" gradientUnits="userSpaceOnUse" gradientTransform="matrix(-11.724,150.804,-9.597,-0.746,1425.702,226.633)">
			<stop offset="0" stop-color="#007c6b" stop-opacity="1"/>
			<stop offset="1" stop-color="#007c6b" stop-opacity="0"/>
		</linearGradient>
		<linearGradient id="g5" x2="1" gradientUnits="userSpaceOnUse" gradientTransform="matrix(-13.483,173.437,-11.962,-0.93,1198.573,225.655)">
			<stop offset="0" stop-color="#007c6b" stop-opacity="1"/>
			<stop offset="1" stop-color="#007c6b" stop-opacity="0"/>
		</linearGradient>
		<linearGradient id="g6" x2="1" gradientUnits="userSpaceOnUse" gradientTransform="matrix(-14.072,181.005,-18.497,-1.438,879.138,232.888)">
			<stop offset="0" stop-color="#007c6b" stop-opacity="1"/>
			<stop offset="1" stop-color="#007c6b" stop-opacity="0"/>
		</linearGradient>
		<linearGradient id="g7" x2="1" gradientUnits="userSpaceOnUse" gradientTransform="matrix(-14.931,192.06,-28.72,-2.233,685.383,243.415)">
			<stop offset="0" stop-color="#007c6b" stop-opacity="1"/>
			<stop offset="1" stop-color="#007c6b" stop-opacity="0"/>
		</linearGradient>
		<linearGradient id="g8" x2="1" gradientUnits="userSpaceOnUse" gradientTransform="matrix(-13.33,171.463,-38.64,-3.004,615.536,292.165)">
			<stop offset="0" stop-color="#007c6b" stop-opacity="1"/>
			<stop offset="1" stop-color="#007c6b" stop-opacity="0"/>
		</linearGradient>
		<linearGradient id="g9" x2="1" gradientUnits="userSpaceOnUse" gradientTransform="matrix(-26.579,131.25,-39.583,-8.016,629.507,384.23)">
			<stop offset="0" stop-color="#007c6b" stop-opacity="1"/>
			<stop offset="1" stop-color="#007c6b" stop-opacity="0"/>
		</linearGradient>
		<linearGradient id="g10" x2="1" gradientUnits="userSpaceOnUse" gradientTransform="matrix(127.606,75.24,-19.775,33.537,-188.436,432.234)">
			<stop offset="0" stop-color="#007c6b" stop-opacity="1"/>
			<stop offset="1" stop-color="#007c6b" stop-opacity="0"/>
		</linearGradient>
		<linearGradient id="g11" x2="1" gradientUnits="userSpaceOnUse" gradientTransform="matrix(151.516,57.91,-13.751,35.98,-133.621,514.159)">
			<stop offset="0" stop-color="#007c6b" stop-opacity="1"/>
			<stop offset="1" stop-color="#007c6b" stop-opacity="0"/>
		</linearGradient>
		<linearGradient id="g12" x2="1" gradientUnits="userSpaceOnUse" gradientTransform="matrix(156.085,27.911,-5.915,33.076,-59.563,632.577)">
			<stop offset="0" stop-color="#007c6b" stop-opacity="1"/>
			<stop offset="1" stop-color="#007c6b" stop-opacity="0"/>
		</linearGradient>
		<linearGradient id="g13" x2="1" gradientUnits="userSpaceOnUse" gradientTransform="matrix(182.831,32.693,-5.454,30.502,-59.704,715.265)">
			<stop offset="0" stop-color="#007c6b" stop-opacity="1"/>
			<stop offset="1" stop-color="#007c6b" stop-opacity="0"/>
		</linearGradient>
		<linearGradient id="g14" x2="1" gradientUnits="userSpaceOnUse" gradientTransform="matrix(193.394,34.582,-4.224,23.622,-55.239,895.828)">
			<stop offset="0" stop-color="#007c6b" stop-opacity="1"/>
			<stop offset="1" stop-color="#007c6b" stop-opacity="0"/>
		</linearGradient>
		<linearGradient id="g15" x2="1" gradientUnits="userSpaceOnUse" gradientTransform="matrix(208.308,37.249,-3.152,17.628,-64.464,1139.407)">
			<stop offset="0" stop-color="#007c6b" stop-opacity="1"/>
			<stop offset="1" stop-color="#007c6b" stop-opacity="0"/>
		</linearGradient>
		<linearGradient id="g16" x2="1" gradientUnits="userSpaceOnUse" gradientTransform="matrix(186.602,33.367,-3.562,19.922,17.516,1090.276)">
			<stop offset="0" stop-color="#007c6b" stop-opacity="1"/>
			<stop offset="1" stop-color="#007c6b" stop-opacity="0"/>
		</linearGradient>
		<linearGradient id="g17" x2="1" gradientUnits="userSpaceOnUse" gradientTransform="matrix(145.992,7.998,-1.224,22.349,179.297,1044.468)">
			<stop offset="0" stop-color="#007c6b" stop-opacity="1"/>
			<stop offset="1" stop-color="#007c6b" stop-opacity="0"/>
		</linearGradient>
	</defs>
	<style>
		.s0 { fill: #c6d82b } 
		.s1 { mix-blend-mode: multiply;fill: url(#g1) } 
		.s2 { mix-blend-mode: multiply;fill: url(#g2) } 
		.s3 { mix-blend-mode: multiply;fill: url(#g3) } 
		.s4 { mix-blend-mode: multiply;fill: url(#g4) } 
		.s5 { mix-blend-mode: multiply;fill: url(#g5) } 
		.s6 { mix-blend-mode: multiply;fill: url(#g6) } 
		.s7 { mix-blend-mode: multiply;fill: url(#g7) } 
		.s8 { mix-blend-mode: multiply;fill: url(#g8) } 
		.s9 { mix-blend-mode: multiply;fill: url(#g9) } 
		.s10 { mix-blend-mode: multiply;fill: url(#g10) } 
		.s11 { mix-blend-mode: multiply;fill: url(#g11) } 
		.s12 { mix-blend-mode: multiply;fill: url(#g12) } 
		.s13 { mix-blend-mode: multiply;fill: url(#g13) } 
		.s14 { mix-blend-mode: multiply;fill: url(#g14) } 
		.s15 { mix-blend-mode: multiply;fill: url(#g15) } 
		.s16 { mix-blend-mode: multiply;fill: url(#g16) } 
		.s17 { mix-blend-mode: multiply;fill: url(#g17) } 
	</style>
	<g id="&lt;Group&gt;">
		<g id="&lt;Group&gt;">
			<path id="&lt;Path&gt;" class="s0" d="m402.6 496.9q-1 1.6-2 3.1c-134.1-86-243.4-204.9-318.1-345q1.6-0.8 3.2-1.7c74.4 139.5 183.3 258 316.9 343.6z"/>
		</g>
		<g id="&lt;Group&gt;">
			<path id="&lt;Path&gt;" class="s0" d="m19 0c-2.3-0.2 22.5 127.6 69.8 162.8-3.5-28.1-22.4-67-38.8-100.9-16.7-33.5-30.8-62-31-61.9z"/>
			<path id="&lt;Path&gt;" class="s1" d="m19 0c0.2-0.1 14.3 28.4 31 61.9 16.4 33.9 35.3 72.8 38.8 100.9-28.2-51.5-51.6-106-69.8-162.8z"/>
		</g>
		<g id="&lt;Group&gt;">
			<path id="&lt;Path&gt;" class="s0" d="m95.9 63.2c-1.6-1.1-12.2 107.4 23.3 150.9 8.4-47.5-24.9-150.2-23.3-150.9z"/>
			<path id="&lt;Path&gt;" class="s2" d="m95.9 63.2c-1.6 0.7 31.7 103.4 23.3 150.9-12.4-50.5-20.1-101-23.3-150.9z"/>
		</g>
		<g id="&lt;Group&gt;">
			<path id="&lt;Path&gt;" class="s0" d="m139 91.4c0.2 0-7.4 26.9-9.3 61.6-2.2 34.4 1.5 76.6 16.7 101.7 12.4-50.1-9.5-163.2-7.4-163.3z"/>
			<path id="&lt;Path&gt;" class="s3" d="m139 91.4c-2.1 0.1 19.8 113.2 7.4 163.3-8-55.8-10.3-110.5-7.4-163.3z"/>
		</g>
		<g id="&lt;Group&gt;">
			<path id="&lt;Path&gt;" class="s0" d="m184 128.8c-1.2-1.4-39.6 103.4-13.9 157.8 19.5-46.2 11.8-158.3 13.9-157.8z"/>
			<path id="&lt;Path&gt;" class="s4" d="m184 128.8c-2.1-0.5 5.6 111.6-13.9 157.8-0.4-54.7 4.4-107.6 13.9-157.8z"/>
		</g>
		<g id="&lt;Group&gt;">
			<path id="&lt;Path&gt;" class="s0" d="m213.6 147.5c0.3 0.1-10.8 29.1-16.2 67.4-5.7 38-5.7 85.3 8.3 114.8 9.2-27.3 8.4-73.5 8.4-112.1-0.6-38.8-0.2-70-0.5-70.1z"/>
			<path id="&lt;Path&gt;" class="s5" d="m213.6 147.5c0.3 0.1-0.1 31.3 0.5 70.1 0 38.6 0.8 84.8-8.4 112.1-4.3-63.2-1.4-124.4 7.9-182.2z"/>
		</g>
		<g id="&lt;Group&gt;">
			<path id="&lt;Path&gt;" class="s0" d="m243.3 181.8c0.3 0.1-9.5 31.1-12.7 71.4-3.7 40.1-0.7 89.6 15.4 119.7 7.2-29.4 3.4-77.7 1.3-118.1-2.7-40.4-3.7-72.9-4-73z"/>
			<path id="&lt;Path&gt;" class="s6" d="m243.3 181.8c0.3 0.1 1.3 32.6 4 73 2.1 40.4 5.9 88.7-1.3 118.1-8.8-66.1-9.3-130.3-2.7-191.1z"/>
		</g>
		<g id="&lt;Group&gt;">
			<path id="&lt;Path&gt;" class="s0" d="m274.9 209.8c0.4 0.1-8.3 33.5-9.2 76.8-1.5 42.9 4.9 95.6 23.4 126.7 4.8-31.8-2.4-83.3-6.7-126.1-5-43-7.1-77.3-7.5-77.4z"/>
			<path id="&lt;Path&gt;" class="s7" d="m274.9 209.8c0.4 0.1 2.5 34.4 7.5 77.4 4.3 42.8 11.5 94.3 6.7 126.1-14-70-18.3-138.6-14.2-203.5z"/>
		</g>
		<g id="&lt;Group&gt;">
			<path id="&lt;Path&gt;" class="s0" d="m306.1 266.6c0.3 0-5.4 30.9-3.5 70 1.4 38.8 10.4 85.9 29.9 112.8 3.8-29-5.9-74.9-13.1-113.3-7.7-38.5-13-69.5-13.3-69.5z"/>
			<path id="&lt;Path&gt;" class="s8" d="m306.1 266.6c0.3 0 5.6 31 13.3 69.5 7.2 38.4 16.9 84.3 13.1 113.3-16.5-62.3-25-123.7-26.4-182.8z"/>
		</g>
		<g id="&lt;Group&gt;">
			<path id="&lt;Path&gt;" class="s0" d="m349.7 326.4c-1-0.9-20.6 100.5 13.4 145.8 12.8-45-15.4-146-13.4-145.8z"/>
			<path id="&lt;Path&gt;" class="s9" d="m349.7 326.4c-2-0.2 26.2 100.8 13.4 145.8-9.1-49.6-13.4-98.5-13.4-145.8z"/>
		</g>
		<g id="&lt;Group&gt;">
			<path id="&lt;Path&gt;" class="s0" d="m4 103.4c-0.3 1.9 89.8 65.9 114.6 111.1-24-4.9-54.2-31.4-76.7-58.2-22.8-26.4-37.9-53.1-37.9-52.9z"/>
			<path id="&lt;Path&gt;" class="s10" d="m4 103.4c0-0.2 15.1 26.5 37.9 52.9 22.5 26.8 52.7 53.3 76.7 58.2-40.3-32.6-78.8-69.7-114.6-111.1z"/>
		</g>
		<g id="&lt;Group&gt;">
			<path id="&lt;Path&gt;" class="s0" d="m0 160.5c0.1 2.2 108.5 53.3 145.8 94.6-25.9-0.4-63.7-21.9-93.5-45.7-30.2-23.4-52.3-49.1-52.3-48.9z"/>
			<path id="&lt;Path&gt;" class="s11" d="m0 160.5c0-0.2 22.1 25.5 52.3 48.9 29.8 23.8 67.6 45.3 93.5 45.7-49.8-25.7-98.8-57.2-145.8-94.6z"/>
		</g>
		<g id="&lt;Group&gt;">
			<path id="&lt;Path&gt;" class="s0" d="m11.2 229.1c0.4 1.8 113.9 25.1 158.4 58-49.7 14.5-159.3-55.6-158.4-58z"/>
			<path id="&lt;Path&gt;" class="s12" d="m11.2 229.1c-0.9 2.4 108.7 72.5 158.4 58-52.7-13.8-105.8-33-158.4-58z"/>
		</g>
		<g id="&lt;Group&gt;">
			<path id="&lt;Path&gt;" class="s0" d="m18 271.3c0-0.2 33.7 8.7 73.7 19.1 40 10.8 86.2 23 113.5 39.8-27.9 6.7-75.4-4.8-115.2-21.5-39.9-16.2-72.1-37.6-72-37.4z"/>
			<path id="&lt;Path&gt;" class="s13" d="m18 271.3c-0.1-0.2 32.1 21.2 72 37.4 39.8 16.7 87.3 28.2 115.2 21.5-61.9-12.2-124.8-31.6-187.2-58.9z"/>
		</g>
		<g id="&lt;Group&gt;">
			<path id="&lt;Path&gt;" class="s0" d="m45.4 323c0-0.2 35.9 7.6 78.5 16.2 42.7 9.2 92 19 121.6 34.1-28.7 8.3-79.3-0.7-122.1-15.7-42.9-14.4-78.1-34.8-78-34.6z"/>
			<path id="&lt;Path&gt;" class="s14" d="m45.4 323c-0.1-0.2 35.1 20.2 78 34.6 42.8 15 93.4 24 122.1 15.7-65.6-8.6-132.9-25.2-200.1-50.3z"/>
		</g>
		<g id="&lt;Group&gt;">
			<path id="&lt;Path&gt;" class="s0" d="m70.9 371.8c-0.1-0.3 39 6.8 85.2 13.8 46.3 7.5 99.8 14.9 132.5 28.3-30.3 10-85.1 3.5-132-9.9-46.9-12.7-85.9-32.5-85.7-32.2z"/>
			<path id="&lt;Path&gt;" class="s15" d="m70.9 371.8c-0.2-0.3 38.8 19.5 85.7 32.2 46.9 13.4 101.7 19.9 132 9.9-70.9-4.8-144.1-18.6-217.7-42.1z"/>
		</g>
		<g id="&lt;Group&gt;">
			<path id="&lt;Path&gt;" class="s0" d="m134.5 426.5c-0.1-0.3 35.2 2.4 76.9 5.2 41.9 3.3 90.3 6.8 120.7 18.2-26.5 11.8-76.1 9.2-118.9 0.1-42.8-8.6-78.8-23.8-78.7-23.5z"/>
			<path id="&lt;Path&gt;" class="s16" d="m134.5 426.5c-0.1-0.3 35.9 14.9 78.7 23.5 42.8 9.1 92.4 11.7 118.9-0.1-64.1-0.5-130.4-8.1-197.6-23.4z"/>
		</g>
		<g id="&lt;Group&gt;">
			<path id="&lt;Path&gt;" class="s0" d="m208.7 483.7c0.8 0.9 103.3-25.1 154-10.9-35.9 32.5-153.8 13-154 10.9z"/>
			<path id="&lt;Path&gt;" class="s17" d="m208.7 483.7c0.2 2.1 118.1 21.6 154-10.9-49.5 7.7-101.1 11.4-154 10.9z"/>
		</g>
	</g>
</svg>