<svg version="1.2" xmlns="http://www.w3.org/2000/svg" viewBox="0 0 328 500" width="328" height="500">
	<title>Proyecto nuevo</title>
	<defs>
		<linearGradient id="g1" x2="1" gradientUnits="userSpaceOnUse" gradientTransform="matrix(68.797,132.302,-34.113,17.739,-250.326,131.655)">
			<stop offset="0" stop-color="#007c6b" stop-opacity="1"/>
			<stop offset="1" stop-color="#007c6b" stop-opacity="0"/>
		</linearGradient>
		<linearGradient id="g2" x2="1" gradientUnits="userSpaceOnUse" gradientTransform="matrix(99.762,85.987,-10.753,12.475,-410.605,592.485)">
			<stop offset="0" stop-color="#007c6b" stop-opacity="1"/>
			<stop offset="1" stop-color="#007c6b" stop-opacity="0"/>
		</linearGradient>
		<linearGradient id="g3" x2="1" gradientUnits="userSpaceOnUse" gradientTransform="matrix(121.381,73.368,-5.246,8.68,-504.445,1020.154)">
			<stop offset="0" stop-color="#007c6b" stop-opacity="1"/>
			<stop offset="1" stop-color="#007c6b" stop-opacity="0"/>
		</linearGradient>
		<linearGradient id="g4" x2="1" gradientUnits="userSpaceOnUse" gradientTransform="matrix(129.23,47.988,-3.059,8.238,-350.176,1248.646)">
			<stop offset="0" stop-color="#007c6b" stop-opacity="1"/>
			<stop offset="1" stop-color="#007c6b" stop-opacity="0"/>
		</linearGradient>
		<linearGradient id="g5" x2="1" gradientUnits="userSpaceOnUse" gradientTransform="matrix(148.657,55.203,-3.823,10.296,-263.594,1058.94)">
			<stop offset="0" stop-color="#007c6b" stop-opacity="1"/>
			<stop offset="1" stop-color="#007c6b" stop-opacity="0"/>
		</linearGradient>
		<linearGradient id="g6" x2="1" gradientUnits="userSpaceOnUse" gradientTransform="matrix(155.173,57.622,-5.922,15.947,-135.655,798.044)">
			<stop offset="0" stop-color="#007c6b" stop-opacity="1"/>
			<stop offset="1" stop-color="#007c6b" stop-opacity="0"/>
		</linearGradient>
		<linearGradient id="g7" x2="1" gradientUnits="userSpaceOnUse" gradientTransform="matrix(164.678,61.152,-9.199,24.771,-53.24,642.852)">
			<stop offset="0" stop-color="#007c6b" stop-opacity="1"/>
			<stop offset="1" stop-color="#007c6b" stop-opacity="0"/>
		</linearGradient>
		<linearGradient id="g8" x2="1" gradientUnits="userSpaceOnUse" gradientTransform="matrix(147.031,54.598,-12.363,33.293,13.492,604.615)">
			<stop offset="0" stop-color="#007c6b" stop-opacity="1"/>
			<stop offset="1" stop-color="#007c6b" stop-opacity="0"/>
		</linearGradient>
		<linearGradient id="g9" x2="1" gradientUnits="userSpaceOnUse" gradientTransform="matrix(118.806,28.237,-8.548,35.965,84.096,651.795)">
			<stop offset="0" stop-color="#007c6b" stop-opacity="1"/>
			<stop offset="1" stop-color="#007c6b" stop-opacity="0"/>
		</linearGradient>
		<linearGradient id="g10" x2="1" gradientUnits="userSpaceOnUse" gradientTransform="matrix(13.441,134.487,-35.222,3.52,438.262,-6.48)">
			<stop offset="0" stop-color="#007c6b" stop-opacity="1"/>
			<stop offset="1" stop-color="#007c6b" stop-opacity="0"/>
		</linearGradient>
		<linearGradient id="g11" x2="1" gradientUnits="userSpaceOnUse" gradientTransform="matrix(-10.072,147.726,-34.992,-2.386,484.869,70.403)">
			<stop offset="0" stop-color="#007c6b" stop-opacity="1"/>
			<stop offset="1" stop-color="#007c6b" stop-opacity="0"/>
		</linearGradient>
		<linearGradient id="g12" x2="1" gradientUnits="userSpaceOnUse" gradientTransform="matrix(-36.693,140.074,-29.262,-7.665,558.612,178.293)">
			<stop offset="0" stop-color="#007c6b" stop-opacity="1"/>
			<stop offset="1" stop-color="#007c6b" stop-opacity="0"/>
		</linearGradient>
		<linearGradient id="g13" x2="1" gradientUnits="userSpaceOnUse" gradientTransform="matrix(-42.988,164.103,-27.383,-7.173,622.344,208.562)">
			<stop offset="0" stop-color="#007c6b" stop-opacity="1"/>
			<stop offset="1" stop-color="#007c6b" stop-opacity="0"/>
		</linearGradient>
		<linearGradient id="g14" x2="1" gradientUnits="userSpaceOnUse" gradientTransform="matrix(-45.481,173.619,-21.228,-5.561,769.921,281.34)">
			<stop offset="0" stop-color="#007c6b" stop-opacity="1"/>
			<stop offset="1" stop-color="#007c6b" stop-opacity="0"/>
		</linearGradient>
		<linearGradient id="g15" x2="1" gradientUnits="userSpaceOnUse" gradientTransform="matrix(-48.999,187.049,-15.864,-4.156,974.534,366.809)">
			<stop offset="0" stop-color="#007c6b" stop-opacity="1"/>
			<stop offset="1" stop-color="#007c6b" stop-opacity="0"/>
		</linearGradient>
		<linearGradient id="g16" x2="1" gradientUnits="userSpaceOnUse" gradientTransform="matrix(-43.903,167.597,-17.822,-4.669,906.327,416.957)">
			<stop offset="0" stop-color="#007c6b" stop-opacity="1"/>
			<stop offset="1" stop-color="#007c6b" stop-opacity="0"/>
		</linearGradient>
		<linearGradient id="g17" x2="1" gradientUnits="userSpaceOnUse" gradientTransform="matrix(-49.38,124.203,-19.08,-7.586,802.341,532.322)">
			<stop offset="0" stop-color="#007c6b" stop-opacity="1"/>
			<stop offset="1" stop-color="#007c6b" stop-opacity="0"/>
		</linearGradient>
	</defs>
	<style>
		.s0 { fill: #009989 } 
		.s1 { mix-blend-mode: multiply;fill: url(#g1) } 
		.s2 { mix-blend-mode: multiply;fill: url(#g2) } 
		.s3 { mix-blend-mode: multiply;fill: url(#g3) } 
		.s4 { mix-blend-mode: multiply;fill: url(#g4) } 
		.s5 { mix-blend-mode: multiply;fill: url(#g5) } 
		.s6 { mix-blend-mode: multiply;fill: url(#g6) } 
		.s7 { mix-blend-mode: multiply;fill: url(#g7) } 
		.s8 { mix-blend-mode: multiply;fill: url(#g8) } 
		.s9 { mix-blend-mode: multiply;fill: url(#g9) } 
		.s10 { mix-blend-mode: multiply;fill: url(#g10) } 
		.s11 { mix-blend-mode: multiply;fill: url(#g11) } 
		.s12 { mix-blend-mode: multiply;fill: url(#g12) } 
		.s13 { mix-blend-mode: multiply;fill: url(#g13) } 
		.s14 { mix-blend-mode: multiply;fill: url(#g14) } 
		.s15 { mix-blend-mode: multiply;fill: url(#g15) } 
		.s16 { mix-blend-mode: multiply;fill: url(#g16) } 
		.s17 { mix-blend-mode: multiply;fill: url(#g17) } 
	</style>
	<g id="&lt;Group&gt;">
		<g id="&lt;Group&gt;">
			<path id="&lt;Path&gt;" class="s0" d="m267.1 507.7c-19.7-144.2-76.2-280.3-163.4-395.7q-1.2 0.9-2.4 1.8c86.9 115 143.2 250.6 162.8 394.3q1.5-0.2 3-0.4z"/>
		</g>
		<g id="&lt;Group&gt;">
			<path id="&lt;Path&gt;" class="s0" d="m0 0c-0.2 0.1 24.7 15.5 50.1 39.3 25.6 23.5 51.7 55.5 57.7 80.7-21.9-13.6-46.8-44.1-68.5-70.7-21.3-26.6-39.4-49.2-39.3-49.3z"/>
			<path id="&lt;Path&gt;" class="s1" d="m0 0c-0.1 0.1 18 22.7 39.3 49.3 21.7 26.6 46.6 57.1 68.5 70.7-31.8-43-67.8-83.2-107.8-120z"/>
		</g>
		<g id="&lt;Group&gt;">
			<path id="&lt;Path&gt;" class="s0" d="m22.8 87.8c-0.3-1.7 93.4 31 115.8 77.1-42.5-11.2-114.6-78.1-115.8-77.1z"/>
			<path id="&lt;Path&gt;" class="s2" d="m22.8 87.8c1.2-1 73.3 65.9 115.8 77.1-37.1-29.6-75.9-55.3-115.8-77.1z"/>
		</g>
		<g id="&lt;Group&gt;">
			<path id="&lt;Path&gt;" class="s0" d="m29.5 134.3c0 0.2 25.2 4.2 54.5 15.9 29.3 11.4 62.8 30.5 77.7 52.7-46.1-8.9-131.3-70.3-132.2-68.6z"/>
			<path id="&lt;Path&gt;" class="s3" d="m29.5 134.3c0.9-1.7 86.1 59.7 132.2 68.6-43-27.9-87.4-50.8-132.2-68.6z"/>
		</g>
		<g id="&lt;Group&gt;">
			<path id="&lt;Path&gt;" class="s0" d="m43.2 185.9c0 0.2 24.7 0.6 54.4 7.9 29.6 7 64.2 20.9 81.5 41-45.8-1.5-135.5-50.8-135.9-48.9z"/>
			<path id="&lt;Path&gt;" class="s4" d="m43.2 185.9c0.4-1.9 90.1 47.4 135.9 48.9-45.1-21.3-90.7-37.5-135.9-48.9z"/>
		</g>
		<g id="&lt;Group&gt;">
			<path id="&lt;Path&gt;" class="s0" d="m47.3 217.6c0 0.3 28.3 2.2 62 12.4 33.6 9.8 72.7 27.9 91.8 50.8-26.2-2.8-64.1-21.2-96-36-31.9-15.3-57.8-27-57.8-27.2z"/>
			<path id="&lt;Path&gt;" class="s5" d="m47.3 217.6c0 0.2 25.9 11.9 57.8 27.2 31.9 14.8 69.8 33.2 96 36-50.7-27.8-102.4-48.8-153.8-63.2z"/>
		</g>
		<g id="&lt;Group&gt;">
			<path id="&lt;Path&gt;" class="s0" d="m64.3 255.3c0 0.3 29.3 4 64 16.8 34.5 12.4 74.3 33.8 93 58.6-27-5.2-65.5-26.9-98.1-44.1-32.5-17.8-58.9-31-58.9-31.3z"/>
			<path id="&lt;Path&gt;" class="s6" d="m64.3 255.3c0 0.3 26.4 13.5 58.9 31.3 32.6 17.2 71.1 38.9 98.1 44.1-51.2-32.5-104.1-57.6-157-75.4z"/>
		</g>
		<g id="&lt;Group&gt;">
			<path id="&lt;Path&gt;" class="s0" d="m75.3 292.2c-0.1 0.3 31 6 67.1 21.8 36.1 15.2 77.3 40.7 95.9 67.9-28.2-8.1-68-33.8-101.8-53.8-33.6-20.7-61.3-35.6-61.2-35.9z"/>
			<path id="&lt;Path&gt;" class="s7" d="m75.3 292.2c-0.1 0.3 27.6 15.2 61.2 35.9 33.8 20 73.6 45.7 101.8 53.8-52.6-38.4-107.6-68.2-163-89.7z"/>
		</g>
		<g id="&lt;Group&gt;">
			<path id="&lt;Path&gt;" class="s0" d="m110.4 339.8c-0.1 0.3 27.6 7.4 59.2 24 31.6 16.1 67.1 41.5 81.9 68-25.4-8-59.7-33.6-88.8-54.3-28.8-21.2-52.4-37.5-52.3-37.7z"/>
			<path id="&lt;Path&gt;" class="s8" d="m110.4 339.8c-0.1 0.2 23.5 16.5 52.3 37.7 29.1 20.7 63.4 46.3 88.8 54.3-45.2-37.6-92.8-68.2-141.1-92z"/>
		</g>
		<g id="&lt;Group&gt;">
			<path id="&lt;Path&gt;" class="s0" d="m143.1 398.9c-0.3-1.2 91.1 21.5 115.6 67.1-42.2-6.7-114.9-68.9-115.6-67.1z"/>
			<path id="&lt;Path&gt;" class="s9" d="m143.1 398.9c0.7-1.8 73.4 60.4 115.6 67.1-37.6-26.6-76.4-48.9-115.6-67.1z"/>
		</g>
		<g id="&lt;Group&gt;">
			<path id="&lt;Path&gt;" class="s0" d="m91.1 27c1.8 0.6 20.1 99.7 48 137.5 5.1-21.7-5.2-56.9-18.7-85.8-13.1-29-29.4-51.7-29.3-51.7z"/>
			<path id="&lt;Path&gt;" class="s10" d="m91.1 27c-0.1 0 16.2 22.7 29.3 51.7 13.5 28.9 23.8 64.1 18.7 85.8-11.5-45.9-27.4-91.9-48-137.5z"/>
		</g>
		<g id="&lt;Group&gt;">
			<path id="&lt;Path&gt;" class="s0" d="m139.9 45.6c-0.2-0.1 1.9 28.2 4.6 61.4 3 33.4 6.8 71.7 17.8 95.6 9.6-21.6 6.2-61.2-2-95-7.8-33.9-20.6-62.1-20.4-62z"/>
			<path id="&lt;Path&gt;" class="s11" d="m139.9 45.6c-0.2-0.1 12.6 28.1 20.4 62 8.2 33.8 11.6 73.4 2 95-2.2-51.1-9.5-103.8-22.4-157z"/>
		</g>
		<g id="&lt;Group&gt;">
			<path id="&lt;Path&gt;" class="s0" d="m192.3 81c1.3 1.1-22.8 104.1-12.7 153.5 14.3-18 19.7-56 19.1-90-0.2-33.8-6.5-63.6-6.4-63.5z"/>
			<path id="&lt;Path&gt;" class="s12" d="m192.3 81c-0.1-0.1 6.2 29.7 6.4 63.5 0.6 34-4.8 72-19.1 90 8.9-48.9 13.3-100.3 12.7-153.5z"/>
		</g>
		<g id="&lt;Group&gt;">
			<path id="&lt;Path&gt;" class="s0" d="m224.6 102.8c-0.2-0.1-5.7 31.3-12.4 68.4-6.4 37.4-14 80.4-10.5 109.4 16.2-20.6 24.9-64.4 26.2-103.8 1.9-39.2-3.5-74.2-3.3-74z"/>
			<path id="&lt;Path&gt;" class="s13" d="m224.6 102.8c-0.2-0.2 5.2 34.8 3.3 74-1.3 39.4-10 83.2-26.2 103.8 13.6-56 21.6-115.6 22.9-177.8z"/>
		</g>
		<g id="&lt;Group&gt;">
			<path id="&lt;Path&gt;" class="s0" d="m256.9 145.3c-0.2-0.2-7.5 32.7-16.6 71.3-8.8 38.9-19.6 83.6-18.4 113.9 17.9-20.7 29.8-66.1 33.7-107.3 4.6-41.1 1.1-78.1 1.3-77.9z"/>
			<path id="&lt;Path&gt;" class="s14" d="m256.9 145.3c-0.2-0.2 3.3 36.8-1.3 77.9-3.9 41.2-15.8 86.6-33.7 107.3 18-57.7 30.1-119.9 35-185.2z"/>
		</g>
		<g id="&lt;Group&gt;">
			<path id="&lt;Path&gt;" class="s0" d="m287.4 185.1c-0.2-0.2-9.2 34.9-21.1 75.9-11.5 41.3-25.9 88.5-27.4 120.8 19.9-21.3 35.6-69.3 42.4-113.3 7.4-43.8 6-83.7 6.1-83.4z"/>
			<path id="&lt;Path&gt;" class="s15" d="m287.4 185.1c-0.1-0.3 1.3 39.6-6.1 83.4-6.8 44-22.5 92-42.4 113.3 23.2-60.7 39.9-126.7 48.5-196.7z"/>
		</g>
		<g id="&lt;Group&gt;">
			<path id="&lt;Path&gt;" class="s0" d="m308.3 258.7c-0.1-0.1-11.4 30.1-25 65.9-13.4 36-29 77.5-31.2 107 19.9-17.5 36.8-59.5 45.6-98.6 9.3-38.8 10.5-74.5 10.6-74.3z"/>
			<path id="&lt;Path&gt;" class="s16" d="m308.3 258.7c-0.1-0.2-1.3 35.5-10.6 74.3-8.8 39.1-25.7 81.1-45.6 98.6 24.1-53.3 43.2-111.2 56.2-172.9z"/>
		</g>
		<g id="&lt;Group&gt;">
			<path id="&lt;Path&gt;" class="s0" d="m327.2 342.2c0.5 1-60.2 76.1-67.9 123.6 19.4-9.3 38-39.1 50-67.8 12.3-28.6 17.9-56 17.9-55.8z"/>
			<path id="&lt;Path&gt;" class="s17" d="m327.2 342.2c0-0.2-5.6 27.2-17.9 55.8-12 28.7-30.6 58.5-50 67.8 25.4-38.1 48.2-79.5 67.9-123.6z"/>
		</g>
	</g>
</svg>